<svg width="16" height="17" viewBox="0 0 16 17" fill="none" xmlns="http://www.w3.org/2000/svg">
<g clip-path="url(#clip0_1_4310)">
<path d="M6.5 16.5001C6.34199 16.5009 6.18749 16.4535 6.05716 16.3641C5.92682 16.2748 5.82686 16.1478 5.77063 16.0001L4.52563 12.7626C4.50041 12.6974 4.46184 12.6381 4.41238 12.5887C4.36293 12.5392 4.30368 12.5006 4.23844 12.4754L1 11.2295C0.852485 11.1729 0.725602 11.0728 0.636101 10.9426C0.5466 10.8124 0.498688 10.6581 0.498688 10.5001C0.498688 10.3421 0.5466 10.1878 0.636101 10.0576C0.725602 9.92736 0.852485 9.82734 1 9.77072L4.2375 8.52572C4.30274 8.5005 4.36199 8.46193 4.41144 8.41247C4.4609 8.36302 4.49947 8.30377 4.52469 8.23853L5.77063 5.00009C5.82724 4.85258 5.92726 4.72569 6.05748 4.63619C6.1877 4.54669 6.34199 4.49878 6.5 4.49878C6.65801 4.49878 6.81231 4.54669 6.94252 4.63619C7.07274 4.72569 7.17276 4.85258 7.22938 5.00009L8.47438 8.23759C8.49959 8.30283 8.53817 8.36208 8.58762 8.41154C8.63708 8.46099 8.69633 8.49957 8.76156 8.52478L11.9803 9.76322C12.1338 9.82013 12.2661 9.92296 12.3591 10.0577C12.4521 10.1925 12.5013 10.3526 12.5 10.5163C12.4976 10.6716 12.4487 10.8226 12.3595 10.9497C12.2704 11.0769 12.1452 11.1743 12 11.2295L8.7625 12.4745C8.69726 12.4997 8.63801 12.5383 8.58856 12.5877C8.5391 12.6372 8.50053 12.6964 8.47531 12.7617L7.22938 16.0001C7.17314 16.1478 7.07318 16.2748 6.94285 16.3641C6.81251 16.4535 6.65802 16.5009 6.5 16.5001Z" fill="#3F83F8"/>
<path d="M2.75003 6.00016C2.65739 6.00015 2.56693 5.97208 2.49056 5.91964C2.41419 5.86721 2.3555 5.79286 2.32222 5.70641L1.79535 4.33641C1.78393 4.30644 1.7663 4.27923 1.74363 4.25656C1.72095 4.23389 1.69375 4.21626 1.66378 4.20484L0.293783 3.67797C0.207338 3.64468 0.133007 3.58599 0.08058 3.50962C0.0281534 3.43325 9.15527e-05 3.34279 9.15527e-05 3.25016C9.15527e-05 3.15752 0.0281534 3.06707 0.08058 2.9907C0.133007 2.91433 0.207338 2.85563 0.293783 2.82234L1.66378 2.29547C1.69372 2.284 1.7209 2.26636 1.74356 2.24369C1.76623 2.22102 1.78387 2.19384 1.79535 2.16391L2.31753 0.806095C2.34698 0.726158 2.39766 0.655758 2.46411 0.602461C2.53057 0.549163 2.6103 0.514983 2.69472 0.503595C2.79608 0.491273 2.89865 0.513142 2.98617 0.565732C3.07369 0.618323 3.14115 0.698626 3.17785 0.793908L3.70472 2.16391C3.71619 2.19384 3.73383 2.22102 3.7565 2.24369C3.77917 2.26636 3.80635 2.284 3.83628 2.29547L5.20628 2.82234C5.29273 2.85563 5.36706 2.91433 5.41949 2.9907C5.47191 3.06707 5.49997 3.15752 5.49997 3.25016C5.49997 3.34279 5.47191 3.43325 5.41949 3.50962C5.36706 3.58599 5.29273 3.64468 5.20628 3.67797L3.83628 4.20484C3.80632 4.21626 3.77911 4.23389 3.75644 4.25656C3.73376 4.27923 3.71614 4.30644 3.70472 4.33641L3.17785 5.70641C3.14457 5.79286 3.08587 5.86721 3.00951 5.91964C2.93314 5.97208 2.84267 6.00015 2.75003 6.00016Z" fill="#3F83F8"/>
<path d="M12.5 8.49994C12.3989 8.49991 12.3003 8.46926 12.217 8.41202C12.1337 8.35478 12.0697 8.27365 12.0334 8.17932L11.3197 6.32401C11.3071 6.29131 11.2878 6.26162 11.2631 6.23686C11.2383 6.2121 11.2086 6.19281 11.1759 6.18026L9.32062 5.46651C9.22636 5.43019 9.14532 5.36617 9.08815 5.28288C9.03099 5.1996 9.0004 5.10096 9.0004 4.99994C9.0004 4.89893 9.03099 4.80029 9.08815 4.717C9.14532 4.63372 9.22636 4.5697 9.32062 4.53338L11.1759 3.81963C11.2086 3.80707 11.2383 3.78779 11.2631 3.76303C11.2878 3.73826 11.3071 3.70857 11.3197 3.67588L12.0281 1.83369C12.0605 1.74658 12.1158 1.66986 12.1883 1.61169C12.2608 1.55353 12.3476 1.5161 12.4397 1.50338C12.5503 1.48999 12.6622 1.51393 12.7577 1.57139C12.8531 1.62886 12.9266 1.71655 12.9666 1.82057L13.6803 3.67588C13.6929 3.70857 13.7121 3.73826 13.7369 3.76303C13.7617 3.78779 13.7914 3.80707 13.8241 3.81963L15.6794 4.53338C15.7736 4.5697 15.8547 4.63372 15.9118 4.717C15.969 4.80029 15.9996 4.89893 15.9996 4.99994C15.9996 5.10096 15.969 5.1996 15.9118 5.28288C15.8547 5.36617 15.7736 5.43019 15.6794 5.46651L13.8241 6.18026C13.7914 6.19281 13.7617 6.2121 13.7369 6.23686C13.7121 6.26162 13.6929 6.29131 13.6803 6.32401L12.9666 8.17932C12.9303 8.27365 12.8663 8.35478 12.783 8.41202C12.6997 8.46926 12.6011 8.49991 12.5 8.49994Z" fill="#3F83F8"/>
</g>
<defs>
<clipPath id="clip0_1_4310">
<rect width="16" height="16" fill="white" transform="translate(0 0.5)"/>
</clipPath>
</defs>
</svg>
